<?xml version="1.0" encoding="utf-8"?>
<!-- Generator: Adobe Illustrator 20.1.0, SVG Export Plug-In . SVG Version: 6.00 Build 0)  -->
<svg version="1.1" xmlns="http://www.w3.org/2000/svg" xmlns:xlink="http://www.w3.org/1999/xlink" x="0px" y="0px"
	 viewBox="0 0 340.2 340.2" style="enable-background:new 0 0 340.2 340.2;" xml:space="preserve">
<style type="text/css">
	.st0{fill:#18485D;}
	.st1{fill-rule:evenodd;clip-rule:evenodd;fill:#FFFFFF;}
	.st2{display:none;fill:#FFFFFF;}
	.st3{font-family:'ShowcaseSlab';}
	.st4{font-size:42px;}
	.st5{letter-spacing:1;}
	.st6{fill:#FFFFFF;}
</style>
<g id="bg">
	<rect x="-5.7" y="-5.7" class="st0" width="351.5" height="351.5"/>
</g>
<g id="logo">
	<path class="st1" d="M149.1,100.1c1.1-2.4,0.8-4.1-2.3-5c-2.5-0.8-5.1,0.3-5.3,3.2c-0.3,2.1,0.7,4.2,3.1,4.6
		C146.3,103.1,148.3,102,149.1,100.1z M100.4,92.7c3.9,0.7,3.9,7.2-1,11.1c-2.7,2-6.2,3.2-10.2,3.7C91.7,97.4,96.4,92,100.4,92.7z
		 M140.1,107.2c-1.4,0.4-2.8,0.5-4.2,0.5c-1.5-4-4.4-4.8-6.4-3.2c-0.6-0.2-1.2-0.2-2-0.2c-6.1,0.2-10.7,6.1-10.8,13.4
		c0,1.9,0.2,3.5,0.8,5c-0.9,2.4-2.1,4.2-3.2,3.9c-2.1-0.6-3.3-5.7-3.3-11.3c8.4-16.3,11.1-31.4,6.5-32.5
		c-6.7-1.6-12.1,18.4-12.2,31.6c0,2.8,0.2,5.3,0.7,7.4c-1.3,4.6-6.1,8.8-10.3,8.4c-4.9-0.4-8.8-8-7.4-18.1c0-0.2,0.1-0.4,0.1-0.7
		c4.3-0.9,8.5-2.6,11.8-5.4c6.7-5.6,6.4-14.6,1.3-15.4c-6-0.8-15.4,5-18.8,17.1c-5.5-0.2-11.1-1.4-15.3-3.2
		C81.2,60.9,122,29.4,170.1,29.4c59.5,0,107.7,48.2,107.7,107.7c0,8.2-0.9,16.2-2.6,23.8l-0.2,0.1c0,0,0,0.1,0,0.1
		c-1,4.2-5.5,8.1-9.7,7.7c-4-0.3-4.9-5.9-4.3-10c0.5-3.5,2-8.7,4.1-8.3c2,0.3,2.8,9.7-2.4,12.6c-1.8,1,0.1,1.9,0.1,1.9
		c11.3-5.2,12.7-16.1,3.5-16.7c-6.5-0.4-11.1,4.9-11.6,12c-0.5,7.1,4.1,11.3,7.9,11.8c4.3,0.4,8.3-1.4,10.9-4.2
		c-13.2,44.6-54.4,77.1-103.3,77.1c-59.5,0-107.7-48.2-107.7-107.7c0-9.3,1.2-18.2,3.4-26.8c3.9,1.3,9.8,2.3,16,2l-0.2,1.3
		c-1.3,13.2,5.4,19.1,11.4,19.8c6,0.6,11.5-3.4,13.8-8.6c1,2.6,2.5,4.3,4.6,5c2.7,0.8,5.4-1.6,7.1-5c1.7,2.7,4.4,4.1,7.4,4
		c6.7-0.1,10.6-8.3,10.7-14.4c0.1-1.6,0-3-0.2-4.2c0.9-0.2,1.9-0.4,2.8-0.6c-0.1,0.8-0.2,1.6-0.2,2.6c0.2,6.3,0.1,12.2-0.3,17.6
		c-7.3,2.8-13.6,8.5-15.3,17.3c-2.3,12.4,8.2,13.2,14.1,5.1c2.9-3.9,4.8-9.9,6.2-18c3.3-0.6,6.5-0.6,9.3-0.1
		c5.3,0.9,6.7,3.7,6.7,3.7c2.6-2.3,2.5-8.3-4.1-9.8c-3.4-0.7-7.2-0.7-11.1,0c0.5-4.1,0.9-8.8,1.3-13.9c0.5-7.4,1.8-8.9,1.9-9
		C145.2,103.6,141.7,104,140.1,107.2z M116.7,88c1.6,1.2-0.5,10.8-5.4,21.7C112.3,99.1,114.8,86.7,116.7,88z M198.8,113.4
		c11.3-5.2,12.7-16.1,3.5-16.7c-6.5-0.4-11.1,4.9-11.6,12c-0.5,7.1,4.1,11.3,7.9,11.8c6.5,0.7,12.3-3.9,13.8-9.2
		c0.4-1.6-0.4-2.2-1.3-1.8c0,0,0,0.1,0,0.1c-1,4.2-5.5,8.1-9.7,7.7c-4-0.3-4.9-5.9-4.3-10c0.5-3.5,2-8.7,4.1-8.3
		c2,0.3,2.8,9.7-2.4,12.6C196.9,112.6,198.8,113.4,198.8,113.4z M174.2,99c-2.9,2.4-1.4,9.4-1.3,20.7c0,1.7-0.5,2.6-0.5,2.6
		c4.8,1.5,6.3-0.7,6.4-10.3c2.4-8.1,4.2-11.2,5.5-11c1.2,0.3,0.3,4-1.8,6.6c0,0,6,2.5,7.1-1.5c1.9-6.7,0.3-8.6-2.3-8.8
		c-2.8-0.1-5.9,1.6-8.5,8.6c0.3-5.5,1.3-6.4,1.3-6.4S177.3,96.4,174.2,99z M127.3,106c0.3,0,0.6,0,1,0.1c-0.8,2,1.3,4.1,3.7,4.2
		c0.5,0,0.8,0.1,1.3,0c0.4,1.3,0.7,2.8,0.6,4.4c-0.3,5.3-3.3,9.3-6.5,9.5c-3,0.1-4.7-3.1-4.5-8.3C123.3,110.4,124.9,106.2,127.3,106
		z M157.2,111.7c1.2-7.6,0.1-11-6.2-8.1c0,0,1.1,1.9,0,9.6c-1,6.9,0.6,11.8,4.7,11.8c3.2,0,5.2-3.7,6.2-6.8
		c0.5,8.2,2.3,12.1,4.8,13.8c3,2,8.4,1.2,11.6-4.8c0.8-1.4,0.1-2.2-0.9-2c0,0.1-0.1,0.1-0.1,0.1c-2.1,4.3-5.6,5.1-7.5,3.4
		c-2.2-2-2.6-9.7-2.1-17c0.4-5.5,2-9.9,2-9.9c-3.1-2.6-7.6-1.4-7.9,5.9c-0.1,2.1-0.1,4-0.1,5.8c-1,5.4-2.7,8.1-3.9,7.9
		C156.4,121.1,156.2,117.7,157.2,111.7z M234.5,170.4c1.2,2.4,3.1,3.8,5.3,3.4c2.3-0.4,3.8-2.2,4.6-4.3c-0.2,2.8-0.4,5.5-0.7,8
		c-7.2,3.3-13.1,9.3-14.4,16.5c-2.3,12.3,8.7,12.5,14.5,4.2c2.5-3.5,4.2-9.5,5.4-17c3.4-0.6,6.8-0.6,9.7-0.1
		c5.3,0.9,6.7,3.8,6.7,3.8c2.5-2.4,2.4-8.4-4.1-9.8c-3.7-0.8-7.7-0.6-11.6,0.3c0.4-4.4,0.7-9.3,0.8-14.3c0.1-7.7,2-9.9,2-9.9
		c-2.3-1.8-5-1.7-6.5,1.3c-0.7-0.6-1.4-1-2.3-1.1c-5.6-1-10.1,4-10.6,11.3c-0.1,1.9,0,3.7,0.3,5.3c-0.9,2.6-2.3,4.6-3.5,4.4
		c-1.5-0.1-1.9-4.3-1.8-8.7c0.1-2.8,0.4-9.6,0.9-16.6c4.2-1.8,8.5-1.8,12.5-1.1c5.2,1,6.7,3.7,6.7,3.7c2.5-2.4,2.5-8.4-4.1-9.8
		c-5.4-1.1-10.6,0.6-14.9,2.8c0.2-3.1,0.5-6.2,0.9-8.6c2.3-18.7-16.2-8.8-21.4,5c-3.7,10,3.3,17.4,13.7,11.7l-0.2,3.4
		c-0.3-0.2-0.6-0.3-1-0.3c-5.6-1-10.2,4-10.7,11.3c-0.1,1.5-0.1,2.9,0.1,4.2c-0.9,3.3-2.4,6.2-3.9,6c-1.3-0.2-2.3-2.1-1.8-7
		c0.5-5,2.1-7.3,2.1-7.3c-4.1-2.2-7.5-0.2-8.2,6c-0.8,7,1.5,11.2,5.3,11.5c3.3,0.2,5.8-2.4,7.4-6.1c1.1,2.8,3.2,4.4,5.6,4
		c3.6-0.7,5.1-4.8,5.7-8c0.4,4,1.7,6.7,4.4,7.1C230.4,175.9,232.9,173.7,234.5,170.4z M224.4,131.9c-0.7,4.4-1.2,9.5-1.6,14.6
		l-0.7,0.4c-7.7,4.4-10.2-3.7-7.8-10.4C218,126,225.7,123.5,224.4,131.9z M132.8,150.9c-3.5,5.2-8.1,3.4-6.9-2.4
		c1.3-6.5,6.3-10.6,12.2-12.8C137.2,141.7,135.6,146.9,132.8,150.9z M209.4,155.6c1.1-2.4,0.9-4.1-2.3-5.1c-2.6-0.8-5.1,0.3-5.4,3.2
		c-0.2,2.1,0.7,4.2,3.2,4.6C206.6,158.6,208.5,157.5,209.4,155.6z M196.2,185.3c3.9,0.3,5.4-2.2,4.7-4.3c0,0-1.3,1.2-3.4,0.5
		c-2.7-1.1-3.3-10.6-1.1-19.6c1.1-4.3,0.8-5-6.7-3.5c-4.6,0.9-6.1-1.2-6.1-1.2s-0.6,0.6-0.7,0.8c-1.4,1.9-0.6,4.4,1.5,5.5
		c-0.1,3.5-0.9,8-2.2,11.1c0,0,0.1,0,0.1,0.1c0.4,0.8,1.4,0.9,2.1-0.6c1.3-3.3,2.2-6.6,2.6-9.8c0.6,0,1.4,0,2.2-0.2l0.4-0.1
		C186.6,177.3,189.6,184.9,196.2,185.3z M181.3,168.9c0.3-4.3-3-7.3-6.8-8.8c2.3-2.5,3.9-5.9,3.9-9.3c0-6.5-6.9-10-14.8-9
		c-12.9,1.8-22.1,11.6-22.6,22.5c-0.3,7.8,4.2,10.8,9.3,10.3c5.5-0.6,3.5-6.8,3.5-6.8c-2.9,1.7-8.5,0.1-8.7-5.3
		c-0.3-7.8,6.6-15.9,16.7-17c5.4-0.6,10.2,2.5,10.1,7.2c0,2.6-0.9,4.7-2.2,6.3c-1.1-0.1-2-0.1-3,0c-4.1,0.6-4.8,3.7-1.8,4.4
		c2,0.5,4.1,0.2,6-0.7c2.1,1.2,3.6,3.8,3.2,8.2c-0.7,7.6-6.9,9-11.9,8.6c0.8-2.6,1.1-5.5,0.8-8.6c-1.7-17.1,1.1-20.2,1.1-20.2
		c-0.2-2-4.3-4.3-7,0c-2.4,4,1.3,10.7-0.4,28.2c-7.4-0.2-14,3.4-13.1,7.9c1.1,4.9,9.5,4,14.9-1.3c1.1-1.1,2-2.4,2.7-3.8
		C170.2,182.6,180.5,179.4,181.3,168.9z M245.2,157l-0.4,6.1c-1,5-2.7,7.1-3.9,6.9c-1.6-0.3-2-5.1-1.3-8.9c0.5-3.5,1.9-7.3,4.3-7.4
		c0.6,0,1.2,0.2,1.7,0.5C245.4,155,245.2,155.9,245.2,157z M222.6,163.8c-0.9,6.4-2.9,9.1-4.3,8.8c-1.6-0.3-1.9-5.1-1.3-8.9
		c0.5-3.5,1.9-7.3,4.3-7.4c0.4,0,0.8,0,1.2,0.2C222.4,159,222.5,161.4,222.6,163.8z M148.3,185.1c-0.9-2.8,3.1-4.7,8.1-4.2
		C155,185.6,148.9,187.2,148.3,185.1z M238.5,197.8c-3.6,5.1-8,3.4-6.9-2.4c1.1-6.2,5.8-10.3,11.4-12.5
		C242,189.7,240.6,194.8,238.5,197.8z"/>
</g>
<g id="Berlin">
	<text id="font" transform="matrix(1 0 0 1 113.9898 285.5968)" class="st2 st3 st4 st5">BERLIN</text>
	<g id="paths">
		<path class="st6" d="M118.1,264.9h-1.2c-0.9,0-1.2-0.4-1.2-0.7c0-0.6,0.4-0.9,1.6-0.9c0.9,0,2.3,0,3.9,0c0.6,0,1.6,0,2.5,0
			c2.2,0,6.6,0.4,6.6,5.9c0,2.6-1.4,4.2-3.2,4.6v0c2.1,0,4.3,1.8,4.3,5.7c0,4-2.9,6-7.3,6c-4.5,0-5.8,0-6.8,0
			c-1.2,0-1.6-0.3-1.6-0.9c0-0.3,0.3-0.7,1.2-0.7h1.5C118.4,279.5,118.1,269.9,118.1,264.9z M119.9,269.8c0,1,0,2.1,0,3.2
			c1.1,0,1.9,0,4.6,0c1.2,0,4.1-0.4,4.1-3.9c0-4-3.3-4.2-4.9-4.2c-1,0-1.5,0-2.5,0h-1.3V269.8z M120.1,274.8c0.1,2,0,5.8,0,9.2h4
			c3.9,0,5.6-2,5.6-4.4c0-3.2-1.6-4.8-5.3-4.8H120.1z"/>
		<path class="st6" d="M150.5,267.5c0,0.5-0.4,0.9-0.8,0.9c-0.5,0-0.8-0.4-0.8-0.9c0,0,0-1.8,0-2.6h-9.1c0,1.8,0.1,5.5,0.1,8.8
			c0.8,0,1.5-0.1,2.6-0.1c2.6,0,3.9,0,3.9,0c0.9,0,1.2,0.3,1.2,0.7s-0.2,0.9-1.8,0.9c-1.1,0-0.9-0.1-3.3-0.1c-0.9,0-1.6,0.1-2.6,0.1
			c0,0.8,0,1.6,0,2.3c0,1.7,0,5.7,0,6.4h0.8c3,0,6.8,0,8.1,0c0-0.8,0-2.6,0-2.6c0-0.5,0.3-0.9,0.8-0.9c0.5,0,0.8,0.4,0.8,0.9
			c0,0.5,0,1.2,0,1.8c0,0.6,0,1.2,0,1.8c0,0.5-0.4,0.7-0.8,0.7c0,0-5.3,0-12.5,0c-1.2,0-1.6-0.3-1.6-0.9c0-0.3,0.3-0.7,1.2-0.7h1.4
			c0-1.1,0.1-4.5,0-6.4c0-3.8-0.2-10-0.2-12.7h-1.3c-0.9,0-1.2-0.4-1.2-0.7c0-0.6,0.4-0.9,1.6-0.9c1.8,0,3.5,0.1,5.7,0.1
			c1,0,6.4-0.1,6.6-0.1c0.5,0,1,0.3,1,0.8V267.5z"/>
		<path class="st6" d="M170.1,269.9c0,4.1-2,5.5-4.4,6.1l3,6.8l0.5,1.2h1.2c1,0,1.1,0.4,1.1,0.7c0,0.4,0,0.9-1.5,0.9h-0.5
			c-0.7,0-1.4-0.3-1.8-1.3l-3.7-8c-0.5,0-1,0-1.4,0h-3.2c0,0.5,0,0.9,0,1.3c0,1.6,0,5.4,0,6.4c1.2,0,2.4,0,2.4,0
			c1,0,1.2,0.4,1.2,0.8c0,0.4-0.2,0.9-1.8,0.9c-1.9,0-1.8,0-3.1,0c-0.8,0-1.4,0-1.4,0c-1.2,0-1.6-0.3-1.6-0.9c0-0.3,0.3-0.7,1.2-0.7
			h1.4c0-1.1,0.1-4.5,0-6.4c0-3.8-0.2-10-0.2-12.7h-1.3c-0.9,0-1.2-0.4-1.2-0.7c0-0.6,0.4-0.9,1.6-0.9h5
			C164.6,263.2,170.1,263.8,170.1,269.9z M159.3,274.6h3.2c2.9,0,6-0.3,6-4.7c0-4.6-4.6-5-7-5h-2.3
			C159.1,266.9,159.2,271,159.3,274.6z"/>
		<path class="st6" d="M180.7,263.2c0.9,0,1.2,0.3,1.2,0.7s-0.2,0.9-1.8,0.9h-1.1c0,1,0,3.2,0.2,12.7c0,1.7,0,5.7,0,6.4h0.8
			c3.1,0,7.4,0,8.7,0l0-0.6c0-0.2,0-2,0-2c0-0.5,0.3-0.9,0.8-0.9c0.5,0,0.8,0.4,0.8,0.9c0,0.5,0,1.2,0,1.8c0,0.6,0,1.2,0,1.8
			c0,0.5-0.4,0.7-0.8,0.7c0,0-6,0-9.6,0h-3.6c-1.2,0-1.6-0.3-1.6-0.9c0-0.3,0.3-0.7,1.2-0.7h1.4c0-1.1,0.1-4.5,0-6.4
			c0-3.7-0.2-9.6-0.2-12.7h-0.7c-1.6,0-1.8-0.5-1.8-0.9s0.4-0.7,1.2-0.7c0,0,2,0.1,2.5,0.1C179.4,263.3,180.7,263.2,180.7,263.2z"/>
		<path class="st6" d="M195.3,285.6c-0.8,0-1.2-0.3-1.2-0.7s0.2-0.9,1.8-0.9h1c-0.1-0.8-0.2-2.3-0.2-4.5c0-5.6,0-13,0-14.6h-0.9
			c-1.6,0-1.8-0.5-1.8-0.9s0.4-0.7,1.2-0.7c0,0,2,0.1,2.5,0.1c0.8,0,2.1-0.1,2.1-0.1c0.9,0,1.2,0.3,1.2,0.7s-0.2,0.9-1.8,0.9h-0.9
			c0,1-0.1,3.1-0.1,5.8c0,5.2,0.3,11.4,0.3,13.3h0.7c1.6,0,1.8,0.5,1.8,0.9s-0.3,0.7-1.2,0.7c0,0-1.3-0.1-2.1-0.1
			C197.3,285.6,195.3,285.6,195.3,285.6z"/>
		<path class="st6" d="M223.7,263.3c0.9,0,1.2,0.4,1.2,0.7c0,0.6-0.4,0.9-1.6,0.9c0,0-0.6,0-1.2,0c0,1-0.1,2.3-0.1,3.6
			c0.1,6.4,0.3,15.1,0.3,16.2c0,0.7-0.5,1.1-1.3,1.1c-1.1,0-1.6-1.1-2.2-2.2l-9.3-17.5c0,0.8-0.1,1.6,0,2.4
			c0.2,5.4,0.2,12.8,0.3,15.6h1.4c0.9,0,1.2,0.4,1.2,0.7c0,0.6-0.4,0.9-1.6,0.9c0,0-1,0-1.7,0c-0.6,0-0.8,0-1.9,0
			c-1.6,0-1.8-0.5-1.8-0.9c0-0.3,0.2-0.8,1.2-0.8c0,0,0.7,0,1.5,0l-0.2-15.5c0-1.5,0-2.8,0-3.6h-0.7c-1.6,0-1.8-0.5-1.8-0.9
			c0-0.3,0.2-0.8,1.2-0.8c0,0,1.6,0,2.5,0c1,0,1.3,0.6,1.7,1.4l9.8,18.4l-0.2-14.6c0-1.5,0-2.8,0-3.6h-0.7c-1.6,0-1.8-0.5-1.8-0.9
			c0-0.3,0.2-0.8,1.2-0.8c0,0,1.6,0,2.5,0H223.7z"/>
	</g>
</g>
</svg>
